# Blender 4.0.2
# www.blender.org
mtllib wall-tile.mtl
o Cube
v 5.000000 -0.200000 -5.000000
v 5.000000 -0.200000 5.000000
v -5.000000 -0.200000 -5.000000
v -5.000000 -0.200000 5.000000
v 5.000000 0.200000 -5.000000
v 5.000000 0.200000 5.000000
v -5.000000 0.200000 -5.000000
v -5.000000 0.200000 5.000000
v -3.750000 -0.200000 -5.000000
v -2.500000 -0.200000 -5.000000
v -1.250000 -0.200000 -5.000000
v 0.000000 -0.200000 -5.000000
v 1.250000 -0.200000 -5.000000
v 2.500000 -0.200000 -5.000000
v 3.750000 -0.200000 -5.000000
v 3.750000 -0.200000 5.000000
v 2.500000 -0.200000 5.000000
v 1.250000 -0.200000 5.000000
v 0.000000 -0.200000 5.000000
v -1.250000 -0.200000 5.000000
v -2.500000 -0.200000 5.000000
v -3.750000 -0.200000 5.000000
v 3.637788 0.200000 -5.000000
v 3.862212 0.200000 -5.000000
v 3.750000 0.195512 -5.000000
v 3.750000 0.160000 -5.000000
v 2.387788 0.200000 -5.000000
v 2.612212 0.200000 -5.000000
v 2.500000 0.195512 -5.000000
v 2.500000 0.160000 -5.000000
v 1.137788 0.210000 -5.000000
v 1.362212 0.200000 -5.000000
v 1.250000 0.195512 -5.000000
v 1.250000 0.160000 -5.000000
v -0.112212 0.200000 -5.000000
v 0.112212 0.200000 -5.000000
v 0.000000 0.195512 -5.000000
v 0.000000 0.160000 -5.000000
v -1.362212 0.200000 -5.000000
v -1.137788 0.200000 -5.000000
v -1.250000 0.195512 -5.000000
v -1.250000 0.160000 -5.000000
v -2.612212 0.200000 -5.000000
v -2.387788 0.200000 -5.000000
v -2.500000 0.195512 -5.000000
v -2.500000 0.160000 -5.000000
v -3.862212 0.200000 -5.000000
v -3.637788 0.200000 -5.000000
v -3.750000 0.195512 -5.000000
v -3.750000 0.160000 -5.000000
v -3.637788 0.200000 5.000000
v -3.862212 0.200000 5.000000
v -3.750000 0.195512 5.000000
v -3.750000 0.160000 5.000000
v -2.387788 0.200000 5.000000
v -2.612212 0.200000 5.000000
v -2.500000 0.195512 5.000000
v -2.500000 0.160000 5.000000
v -1.137788 0.200000 5.000000
v -1.362212 0.200000 5.000000
v -1.250000 0.195512 5.000000
v -1.250000 0.160000 5.000000
v 0.112212 0.200000 5.000000
v -0.112212 0.200000 5.000000
v 0.000000 0.195512 5.000000
v 0.000000 0.160000 5.000000
v 1.362212 0.200000 5.000000
v 1.137788 0.200000 5.000000
v 1.250000 0.195512 5.000000
v 1.250000 0.160000 5.000000
v 2.612212 0.200000 5.000000
v 2.387788 0.200000 5.000000
v 2.500000 0.195512 5.000000
v 2.500000 0.160000 5.000000
v 3.862212 0.200000 5.000000
v 3.637788 0.200000 5.000000
v 3.750000 0.195512 5.000000
v 3.750000 0.160000 5.000000
v 0.112212 0.200000 2.814674
v 1.137788 0.162952 3.246810
v 1.137788 0.167429 2.337316
v 0.795322 0.173357 2.812736
v 0.112212 0.170000 -1.275819
v 0.112212 0.170000 -2.339847
v 0.401385 0.200000 -1.837426
v -3.637788 0.200000 1.500180
v -2.612212 0.170000 2.419488
v -2.612212 0.170000 1.851730
v -3.637788 0.200000 2.777425
v -2.927878 0.200000 2.136531
v 2.612212 0.200000 0.466616
v 3.523999 0.200000 1.102032
v 3.521072 0.200000 0.271070
v 3.108144 0.200000 0.587875
v -2.233433 0.200000 -0.727519
v -1.362212 0.200000 -1.021903
v -5.000000 0.200000 0.151075
v -3.963641 0.180000 -0.220932
v 5.400000 -0.400000 -5.010000
v 5.400000 -0.400000 5.010000
v 4.600000 -0.400000 -5.010000
v 4.600000 -0.400000 5.010000
v 4.839732 0.400000 2.184422
v 5.237408 0.400000 1.945356
v 5.237408 0.400000 -5.010000
v 5.400000 0.237408 -5.010000
v 5.352378 0.352378 -5.010000
v 5.400000 0.237408 5.010000
v 5.237408 0.400000 5.010000
v 5.352378 0.352378 5.010000
v 4.600000 0.237408 -5.010000
v 4.762592 0.400000 -5.010000
v 4.647622 0.352378 -5.010000
v 4.762592 0.400000 5.010000
v 4.600000 0.237408 5.010000
v 4.647622 0.352378 5.010000
v 5.176616 0.400000 -2.593494
v 4.783532 0.400000 -3.057035
vn -0.0000 -1.0000 -0.0000
vn -1.0000 -0.0000 -0.0000
vn -0.0000 1.0000 -0.0000
vn 1.0000 -0.0000 -0.0000
vn -0.0000 -0.0000 1.0000
vn 0.0096 1.0000 0.0021
vn 0.0152 0.9999 0.0007
vn -0.0000 -0.0000 -1.0000
vn -0.3358 0.9419 -0.0000
vn 0.1811 0.9835 -0.0000
vn -0.2066 0.9784 -0.0000
vn 0.2104 0.9776 -0.0000
vn 0.3358 0.9419 -0.0000
vn -0.2313 0.9729 -0.0000
vn -0.0026 1.0000 0.0031
vn 0.2200 0.9755 0.0005
vn 0.0241 0.9997 0.0049
vn 0.0213 0.9997 -0.0092
vn -0.1032 0.9947 -0.0000
vn 0.0161 0.9999 -0.0018
vn 0.0946 0.9955 -0.0000
vn 0.2232 0.9748 -0.0000
vn 0.0088 1.0000 -0.0021
vn -0.2962 0.9551 -0.0000
vn -0.9239 0.3827 -0.0000
vn 0.9239 0.3827 -0.0000
vn 0.3303 0.9439 -0.0000
vt 0.375000 0.218750
vt 0.625000 0.218750
vt 0.625000 0.250000
vt 0.375000 0.250000
vt 0.625000 0.500000
vt 0.503777 0.500000
vt 0.375000 0.500000
vt 0.375000 0.659055
vt 0.625000 0.659055
vt 0.625000 0.684695
vt 0.375000 0.684695
vt 0.375000 0.750000
vt 0.625000 0.750000
vt 0.625000 1.000000
vt 0.375000 1.000000
vt 0.625000 0.534055
vt 0.627805 0.531250
vt 0.875000 0.531250
vt 0.875000 0.562500
vt 0.627805 0.562500
vt 0.625000 0.559695
vt 0.625000 0.565305
vt 0.875000 0.593750
vt 0.627805 0.593750
vt 0.625000 0.590945
vt 0.625000 0.596555
vt 0.875000 0.625000
vt 0.627805 0.625000
vt 0.625000 0.622195
vt 0.625000 0.627805
vt 0.875000 0.656250
vt 0.627805 0.656250
vt 0.625000 0.653445
vt 0.875000 0.687500
vt 0.627805 0.687500
vt 0.625000 0.690305
vt 0.875000 0.718750
vt 0.627805 0.718750
vt 0.625000 0.715945
vt 0.625000 0.721555
vt 0.875000 0.750000
vt 0.875000 0.500000
vt 0.625000 0.528445
vt 0.494477 0.528445
vt 0.375000 0.528445
vt 0.375000 0.534055
vt 0.537504 0.534055
vt 0.553413 0.551803
vt 0.546293 0.559695
vt 0.375000 0.559695
vt 0.375000 0.565305
vt 0.481812 0.565305
vt 0.474452 0.590945
vt 0.375000 0.590945
vt 0.375000 0.596555
vt 0.375000 0.622195
vt 0.375000 0.721555
vt 0.125000 0.500000
vt 0.372195 0.531250
vt 0.125000 0.531250
vt 0.372195 0.562500
vt 0.125000 0.562500
vt 0.372195 0.593750
vt 0.125000 0.593750
vt 0.372195 0.625000
vt 0.125000 0.625000
vt 0.375000 0.627805
vt 0.375000 0.653445
vt 0.372195 0.656250
vt 0.125000 0.656250
vt 0.372195 0.687500
vt 0.125000 0.687500
vt 0.375000 0.690305
vt 0.375000 0.715945
vt 0.372195 0.718750
vt 0.125000 0.718750
vt 0.375000 0.000000
vt 0.625000 0.000000
vt 0.625000 0.031250
vt 0.375000 0.031250
vt 0.625000 0.062500
vt 0.375000 0.062500
vt 0.625000 0.093750
vt 0.375000 0.093750
vt 0.625000 0.125000
vt 0.375000 0.125000
vt 0.625000 0.156250
vt 0.375000 0.156250
vt 0.625000 0.187500
vt 0.375000 0.187500
vt 0.375000 0.718750
vt 0.375000 0.687500
vt 0.375000 0.656250
vt 0.375000 0.659055
vt 0.375000 0.625000
vt 0.375000 0.593750
vt 0.375000 0.562500
vt 0.375000 0.531250
vt 0.625000 0.531250
vt 0.625000 0.562500
vt 0.625000 0.593750
vt 0.625000 0.625000
vt 0.625000 0.656250
vt 0.625000 0.687500
vt 0.625000 0.718750
vt 0.625000 0.715945
vt 0.569436 0.534055
vt 0.560487 0.559695
vt 0.570367 0.627805
vt 0.468105 0.627805
vt 0.441504 0.627805
vt 0.453894 0.633629
vt 0.570318 0.644883
vt 0.558433 0.653445
vt 0.511665 0.690305
vt 0.514697 0.704439
vt 0.506777 0.715945
vt 0.125000 0.750000
vt 0.581170 0.653445
vt 0.527551 0.715945
vt 0.375000 0.800810
vt 0.625000 0.800810
vt 0.625000 0.550810
vt 0.639882 0.514882
vt 0.675810 0.500000
vt 0.675810 0.750000
vt 0.639882 0.735118
vt 0.625000 0.699190
vt 0.375000 0.550810
vt 0.423727 0.550810
vt 0.435292 0.699190
vt 0.375000 0.699190
vt 0.625000 0.449190
vt 0.375000 0.449190
vt 0.554502 0.550810
vt 0.548537 0.699190
vt 0.324190 0.500000
vt 0.360118 0.514882
vt 0.360118 0.735118
vt 0.324190 0.750000
s 0
usemtl wood1
f 9/1/1 22/2/1 4/3/1 3/4/1
f 3/4/2 4/3/2 8/5/2 97/6/2 7/7/2
f 32/8/3 67/9/3 72/10/3 27/11/3
f 5/12/4 6/13/4 2/14/4 1/15/4
f 51/16/5 53/17/5 22/18/5 21/19/5 57/20/5 56/21/5
f 55/22/5 57/20/5 21/19/5 20/23/5 61/24/5 60/25/5
f 59/26/5 61/24/5 20/23/5 19/27/5 65/28/5 64/29/5
f 63/30/5 65/28/5 19/27/5 18/31/5 69/32/5 68/33/5
f 67/9/5 69/32/5 18/31/5 17/34/5 73/35/5 72/10/5
f 71/36/5 73/35/5 17/34/5 16/37/5 77/38/5 76/39/5
f 75/40/5 77/38/5 16/37/5 2/41/5 6/13/5
f 8/5/5 4/42/5 22/18/5 53/17/5 52/43/5
f 7/7/6 97/6/6 98/44/6 47/45/6
f 48/46/7 86/47/7 90/48/7 88/49/7 43/50/7
f 44/51/3 95/52/3 96/53/3 39/54/3
f 40/55/3 59/26/3 64/29/3 35/56/3
f 24/57/3 75/40/3 6/13/3 5/12/3
f 3/58/8 7/7/8 47/45/8 49/59/8 9/60/8
f 9/60/8 49/59/8 48/46/8 43/50/8 45/61/8 10/62/8
f 10/62/8 45/61/8 44/51/8 39/54/8 41/63/8 11/64/8
f 11/64/8 41/63/8 40/55/8 35/56/8 37/65/8 12/66/8
f 12/66/8 37/65/8 36/67/8 31/68/8 33/69/8 13/70/8
f 13/70/8 33/69/8 32/8/8 27/11/8 29/71/8 14/72/8
f 14/72/8 29/71/8 28/73/8 23/74/8 25/75/8 15/76/8
f 1/77/1 2/78/1 16/79/1 15/80/1
f 15/80/1 16/79/1 17/81/1 14/82/1
f 14/82/1 17/81/1 18/83/1 13/84/1
f 13/84/1 18/83/1 19/85/1 12/86/1
f 12/86/1 19/85/1 20/87/1 11/88/1
f 11/88/1 20/87/1 21/89/1 10/90/1
f 10/90/1 21/89/1 22/2/1 9/1/1
f 23/74/5 26/91/5 25/75/5
f 26/91/5 24/57/5 25/75/5
f 27/11/5 30/92/5 29/71/5
f 30/92/5 28/73/5 29/71/5
f 31/68/5 34/93/5 33/69/5
f 34/93/5 32/94/5 33/69/5
f 35/56/5 38/95/5 37/65/5
f 38/95/5 36/67/5 37/65/5
f 39/54/5 42/96/5 41/63/5
f 42/96/5 40/55/5 41/63/5
f 43/50/5 46/97/5 45/61/5
f 46/97/5 44/51/5 45/61/5
f 47/45/5 50/98/5 49/59/5
f 50/98/5 48/46/5 49/59/5
f 51/16/8 54/99/8 53/17/8
f 54/99/8 52/43/8 53/17/8
f 55/22/8 58/100/8 57/20/8
f 58/100/8 56/21/8 57/20/8
f 59/26/8 62/101/8 61/24/8
f 62/101/8 60/25/8 61/24/8
f 63/30/8 66/102/8 65/28/8
f 66/102/8 64/29/8 65/28/8
f 67/9/8 70/103/8 69/32/8
f 70/103/8 68/33/8 69/32/8
f 71/36/8 74/104/8 73/35/8
f 74/104/8 72/10/8 73/35/8
f 75/40/8 78/105/8 77/38/8
f 78/105/8 76/106/8 77/38/8
f 51/16/9 89/107/9 86/47/9 48/46/9 50/98/9 54/99/9
f 54/99/10 50/98/10 47/45/10 98/44/10 52/43/10
f 55/22/11 95/52/11 44/51/11 46/97/11 58/100/11
f 58/100/12 46/97/12 43/50/12 88/49/12 87/108/12 56/21/12
f 59/26/9 40/55/9 42/96/9 62/101/9
f 62/101/13 42/96/13 39/54/13 96/53/13 60/25/13
f 63/30/14 79/109/14 83/110/14 84/111/14 36/67/14 38/95/14 66/102/14
f 66/102/13 38/95/13 35/56/13 64/29/13
f 67/9/9 32/8/9 34/93/9 70/103/9
f 36/67/15 84/111/15 85/112/15 83/110/15 79/109/15 82/113/15 81/114/15 31/68/15
f 71/36/9 91/115/9 28/73/9 30/92/9 74/104/9
f 74/104/13 30/92/13 27/11/13 72/10/13
f 75/40/9 24/57/9 26/91/9 78/105/9
f 28/73/3 91/115/3 94/116/3 93/117/3 23/74/3
f 15/76/8 25/75/8 24/57/8 5/12/8 1/118/8
f 70/103/16 34/93/16 31/68/16 81/114/16 80/119/16 68/33/16
f 80/119/17 81/114/17 82/113/17
f 80/119/18 82/113/18 79/109/18 63/30/18 68/33/18
f 83/110/19 85/112/19 84/111/19
f 87/108/20 90/48/20 89/107/20 51/16/20 56/21/20
f 89/107/3 90/48/3 86/47/3
f 88/49/21 90/48/21 87/108/21
f 78/105/22 26/91/22 23/74/22 93/117/22 92/120/22 76/39/22
f 92/120/3 93/117/3 94/116/3
f 92/120/3 94/116/3 91/115/3 71/36/3 76/39/3
f 96/53/3 95/52/3 55/22/3 60/25/3
f 98/44/23 97/6/23 8/5/23 52/43/23
usemtl wood2
f 99/77/1 100/78/1 102/3/1 101/4/1
f 106/121/4 108/122/4 100/14/4 99/15/4
f 114/123/5 116/124/5 115/125/5 102/42/5 100/41/5 108/126/5 110/127/5 109/128/5
f 112/129/3 118/130/3 117/131/3 105/132/3
f 101/4/2 102/3/2 115/133/2 111/134/2
f 114/123/24 103/135/24 118/130/24 112/129/24 113/7/24 116/5/24
f 116/5/25 113/7/25 111/134/25 115/133/25
f 108/122/26 106/121/26 107/12/26 110/13/26
f 110/13/27 107/12/27 105/132/27 117/131/27 104/136/27 109/128/27
f 101/58/8 111/137/8 113/138/8 112/129/8 105/132/8 107/139/8 106/140/8 99/118/8
f 104/136/3 103/135/3 114/123/3 109/128/3
f 117/131/3 118/130/3 103/135/3 104/136/3
